<svg width="100%" height="150px" viewBox="0 0 257 287" fill="" xmlns="http://www.w3.org/2000/svg">
    <path fill="" d="M173.5 29C171.567 29 170 30.567 170 32.5C170 34.433 171.567 36 173.5 36V29ZM187 47C185.067 47 183.5 48.567 183.5 50.5C183.5 52.433 185.067 54 187 54V47ZM197.5 66C195.567 66 194 67.567 194 69.5C194 71.433 195.567 73 197.5 73V66ZM206 86C204.067 86 202.5 87.567 202.5 89.5C202.5 91.433 204.067 93 206 93V86ZM212 103C210.067 103 208.5 104.567 208.5 106.5C208.5 108.433 210.067 110 212 110V103ZM216 122.5C214.067 122.5 212.5 124.067 212.5 126C212.5 127.933 214.067 129.5 216 129.5V122.5ZM215.5 142C213.567 142 212 143.567 212 145.5C212 147.433 213.567 149 215.5 149V142ZM216.5 159C214.567 159 213 160.567 213 162.5C213 164.433 214.567 166 216.5 166V159ZM212 178.5C210.067 178.5 208.5 180.067 208.5 182C208.5 183.933 210.067 185.5 212 185.5V178.5ZM205.5 196.5C203.567 196.5 202 198.067 202 200C202 201.933 203.567 203.5 205.5 203.5V196.5ZM199.5 216C197.567 216 196 217.567 196 219.5C196 221.433 197.567 223 199.5 223V216ZM188 234C186.067 234 184.5 235.567 184.5 237.5C184.5 239.433 186.067 241 188 241V234ZM173.5 253C171.567 253 170 254.567 170 256.5C170 258.433 171.567 260 173.5 260V253ZM164 4L164.767 0.585161C164.516 0.528561 164.258 0.5 164 0.5V4ZM98.0001 4V0.5C97.7562 0.5 97.5129 0.525494 97.2744 0.576066L98.0001 4ZM4 154L0.501239 154.093L4 154ZM88.5001 283L88.0375 286.469L88.0375 286.469L88.5001 283ZM171 283L171.051 286.5C171.464 286.494 171.872 286.415 172.258 286.266L171 283ZM112 20L111.524 23.4675C111.695 23.491 111.867 23.5017 112.04 23.4998L112 20ZM17.5 129.5L20.9901 129.763L17.5 129.5ZM104 96L105.983 93.1159C104.784 92.2917 103.2 92.295 102.005 93.1242L104 96ZM48.5 134.5L46.5051 131.624C45.5465 132.289 44.9823 133.388 45.0004 134.554C45.0185 135.721 45.6166 136.802 46.5953 137.436L48.5 134.5ZM104 170.5L102.095 173.436C103.25 174.185 104.735 174.188 105.893 173.444L104 170.5ZM160 134.5L161.893 137.444C162.878 136.811 163.481 135.726 163.5 134.554C163.518 133.383 162.948 132.28 161.983 131.616L160 134.5ZM142 162.5H145.5C145.5 161.398 144.981 160.361 144.1 159.7L142 162.5ZM74 180.5H70.5C70.5 181.026 70.6184 181.545 70.8465 182.018L74 180.5ZM135 180.5L137.962 182.365C138.313 181.806 138.5 181.16 138.5 180.5H135ZM210 29H173.5V36H210V29ZM224.5 47H187V54H224.5V47ZM234 66H197.5V73H234V66ZM245 86H206V93H245V86ZM249 103H212V110H249V103ZM252 122.5H216V129.5H252V122.5ZM254 142H215.5V149H254V142ZM253.5 159H216.5V166H253.5V159ZM249.5 178.5H212V185.5H249.5V178.5ZM242.5 196.5H205.5V203.5H242.5V196.5ZM234.5 216H199.5V223H234.5V216ZM224 234H188V241H224V234ZM208.5 253H173.5V260H208.5V253ZM164 0.5H98.0001V7.5H164V0.5ZM97.2744 0.576066C81.4032 3.94007 56.4116 13.6101 35.7551 36.9292C15.0372 60.3177 -1.01862 97.0984 0.501239 154.093L7.49875 153.907C6.01862 98.4016 21.6296 63.4323 40.995 41.5708C60.4218 19.6399 83.9303 10.5599 98.7258 7.42393L97.2744 0.576066ZM0.501239 154.093C1.93333 207.797 21.5617 240.679 42.0773 260.254C62.4383 279.681 83.5397 285.87 88.0375 286.469L88.9626 279.531C85.9604 279.13 66.2197 273.614 46.9096 255.189C27.754 236.912 8.88239 205.793 7.49875 153.907L0.501239 154.093ZM88.0375 286.469C89.8056 286.705 94.5574 286.822 100.675 286.884C106.93 286.948 114.933 286.954 123.45 286.925C140.485 286.867 159.623 286.666 171.051 286.5L170.949 279.5C159.544 279.667 140.432 279.867 123.426 279.925C114.921 279.954 106.955 279.948 100.747 279.885C94.4011 279.82 90.1945 279.695 88.9626 279.531L88.0375 286.469ZM172.258 286.266C188.654 279.953 209.791 263.272 226.807 238.915C243.88 214.475 257 182.038 257 144H250C250 180.388 237.453 211.451 221.068 234.906C204.626 258.441 184.513 274.047 169.742 279.734L172.258 286.266ZM257 144C257 68.3137 211.267 11.0345 164.767 0.585161L163.233 7.41484C205.733 16.9655 250 70.6863 250 144H257ZM112.04 23.4998C125.245 23.3489 147.326 33.2189 165.245 54.7984C183.001 76.1822 196.434 108.849 192.513 153.695L199.487 154.305C203.566 107.651 189.583 73.1511 170.63 50.3266C151.84 27.6978 127.922 16.3178 111.96 16.5002L112.04 23.4998ZM112.476 16.5325C84.7794 12.731 20.7761 39.585 14.0099 129.237L20.9901 129.763C27.4836 43.7239 88.2206 20.269 111.524 23.4675L112.476 16.5325ZM14.0099 129.237C9.94609 183.082 25.4405 218.447 45.6119 240.37C65.6375 262.134 90.1662 270.5 104 270.5V263.5C92.3338 263.5 69.6125 256.116 50.7631 235.63C32.0595 215.303 17.0539 181.918 20.9901 129.763L14.0099 129.237ZM104 270.5C117.579 270.5 139.418 264.828 158.895 247.422C178.459 229.938 195.42 200.817 199.487 154.305L192.513 153.695C188.58 198.683 172.291 226.062 154.23 242.203C136.082 258.422 115.921 263.5 104 263.5V270.5ZM102.005 93.1242L46.5051 131.624L50.4949 137.376L105.995 98.8758L102.005 93.1242ZM105.893 173.444L132.098 156.598L128.312 150.71L102.107 167.556L105.893 173.444ZM132.098 156.598L161.893 137.444L158.107 131.556L128.312 150.71L132.098 156.598ZM161.983 131.616L105.983 93.1159L102.017 98.8841L158.017 137.384L161.983 131.616ZM99.9 135.3L128.105 156.454L132.305 150.854L104.1 129.7L99.9 135.3ZM128.105 156.454L139.9 165.3L144.1 159.7L132.305 150.854L128.105 156.454ZM138.5 162.5V210H145.5V162.5H138.5ZM70.5 153V180.5H77.5V153H70.5ZM70.8465 182.018C73.6696 187.882 83.9328 197.5 103.5 197.5V190.5C86.2672 190.5 78.6637 182.118 77.1535 178.982L70.8465 182.018ZM103.5 197.5C123.047 197.5 134.459 187.929 137.962 182.365L132.038 178.635C129.875 182.071 120.753 190.5 103.5 190.5V197.5ZM138.5 180.5V159H131.5V180.5H138.5ZM46.5953 137.436L102.095 173.436L105.905 167.564L50.4047 131.564L46.5953 137.436Z"/>
</svg>
