<?xml version="1.0" encoding="UTF-8"?>
<svg id="Layer_1" xmlns="http://www.w3.org/2000/svg" version="1.1" viewBox="150 470 800 150">
  <!-- Generator: Adobe Illustrator 29.0.0, SVG Export Plug-In . SVG Version: 2.1.0 Build 186)  -->
  <defs>
    <style>
      .st0 {
        fill: #fff;
      }

      .st1 {
        fill: none;
      }
    </style>
  </defs>
  <rect class="st1" x="-6.45" y="-10.45" width="1091.94" height="1115.85"/>
  <g id="full_logo">
    <g>
      <path class="st0" d="M394.81,507.37h40.45c12.24,0,18.05,7.98,18.05,17.7v5.68c0,9.71-5.81,17.7-18.05,17.7h-25.55l5.06-10.07h16.5c6.12,0,11.27-1.91,11.27-10.42s-5.1-10.56-11.27-10.56h-25.68v52.16h-10.78v-62.18Z"/>
      <path class="st0" d="M506.65,507.37c12.2,0,18.01,7.98,18.01,17.7v5.68c0,7.63-3.64,14.24-11.13,16.68l.75,1.46,10.29,20.54.09.13h-12.42l-9.98-19.96-.58-1.15h-20.62l5.06-10.07h16.5c6.17,0,11.27-1.91,11.27-10.42s-5.1-10.56-11.27-10.56h-25.68v52.16h-10.78v-62.18h40.49Z"/>
      <path class="st0" d="M560.43,569.56c-16.63,0-24.53-10.87-24.53-24.08v-14.02c0-13.22,7.9-24.08,24.53-24.08h15.44c16.59,0,24.53,10.82,24.53,24.08v14.02c0,13.26-7.94,24.08-24.53,24.08h-15.44ZM566.24,517.4c-8.83,0-19.6,1.42-19.6,15.61v10.91c0,14.19,10.78,15.61,19.6,15.61h3.77c8.87,0,19.6-1.42,19.6-15.61v-10.91c0-14.19-10.73-15.61-19.6-15.61h-3.77Z"/>
      <path class="st0" d="M638.42,543.92l-20.58,25.64h-13.71l24.35-30.96-24-31.23h13.35l20.62,25.86,20.58-25.86h13.39l-24.04,31.23,24.35,30.96h-13.71l-20.58-25.64h-.04Z"/>
      <path class="st0" d="M683.64,569.56v-62.19h10.78v62.19h-10.78Z"/>
      <path class="st0" d="M715.93,507.37c2.97.04,4.12,2.04,5.77,4.39l23.51,40.94,23.51-40.94c1.64-2.35,2.79-4.35,5.77-4.39.84,0,1.64.18,2.4.62,1.73,1.06,2.84,3.19,2.79,5.5v56.06h-10.73v-37.48l-19.56,33.71c-.8,1.29-2.08,3.77-4.17,3.77s-3.37-2.48-4.17-3.77l-19.56-33.71v37.48h-10.73v-56.06c-.04-2.31,1.07-4.43,2.8-5.5.75-.44,1.55-.62,2.39-.62Z"/>
      <path class="st0" d="M787.94,569.56l29.67-59.08c.97-2,2.79-3.11,4.66-3.11s3.68,1.15,4.61,3.06c6.43,12.82,12.86,25.64,19.29,38.46l10.38,20.67h-12.38l-5.19-10.29h-27.32l4.92-9.85h17.48l-11.84-23.55c-7.23,14.46-14.68,29.23-21.91,43.69h-12.37Z"/>
    </g>
    <g id="icon">
      <g id="XzVo8x.tif">
        <path class="st0" d="M281.71,533.24c.35-.07-1.84,1.38-1.84,1.38-5.96,4.78-13.73,8.95-20.32,12.28-7.88,3.98-14.09,6.78-13.55,8.02.65,1.5,20.35-2.24,36.93-3.25.55-.03,1.05.34,1.16.88.88,4.17,1.36,8.84,1.63,13.49.04.65-.48,1.19-1.13,1.18l-61.93-.66c-.61,0-1.1-.5-1.11-1.12l-.05-24.01c0-.39.2-.75.53-.95,6.29-3.87,66.91-41.21,85.05-52.26-2.9,7.85-6.89,18.39-11.99,27.71-3.82,7-8.28,13.33-13.39,17.31Z"/>
      </g>
      <path class="st0" d="M286.02,587.99c2.6-6.64,7.05-21.69,12.12-33.5,1.3-3.04,2.64-5.85,4-8.27,10.82-12.89,32.55-19.88,37.81-23.97.89-.69,1.31-1.3,1.12-1.84-.47-1.44-7.72.17-16.79,1.35-4.43.58-9.75,1.36-14.31,1.04-.56-.04-.99-.5-1.02-1.06-.05-1.23-.13-3.16-.13-3.16-.18-2.15-.28-4.38-.32-6.64-.03-1.12-.03-2.26-.03-3.4,0-.5.41-.9.91-.89l55.77.29c.61,0,1.11.5,1.11,1.12l.04,24.22c0,.37-.18.72-.49.93l-79.8,53.76Z"/>
    </g>
  </g>
</svg>