<?xml version="1.0" encoding="UTF-8"?>
<svg id="Layer_1" xmlns="http://www.w3.org/2000/svg" version="1.1" viewBox="0 0 1080 1080">
  <!-- Generator: Adobe Illustrator 29.0.0, SVG Export Plug-In . SVG Version: 2.1.0 Build 186)  -->
  <defs>
    <style>
      .st0 {
        fill: #fff;
      }

      .st1 {
        fill: none;
      }
    </style>
  </defs>
  <rect class="st1" x="-11" y="-8.66" width="1091.94" height="1115.85"/>
  <g id="icon">
    <g id="XzVo8x.tif">
      <path class="st0" d="M459.81,514.27c1.84-.37-9.72,7.32-9.72,7.32-31.5,25.28-72.57,47.29-107.43,64.93-41.67,21.04-74.5,35.82-71.65,42.41,3.43,7.95,107.56-11.84,195.25-17.2,2.92-.18,5.54,1.79,6.15,4.65,4.67,22.06,7.19,46.75,8.64,71.3.2,3.42-2.55,6.28-5.98,6.25l-327.39-3.51c-3.23-.03-5.84-2.66-5.85-5.9l-.26-126.92c0-2.06,1.04-3.95,2.79-5.03,33.25-20.48,353.74-217.88,449.62-276.26-15.33,41.49-36.42,97.2-63.41,146.48-20.21,37.02-43.79,70.45-70.77,91.5Z"/>
    </g>
    <path class="st0" d="M482.63,803.71c13.77-35.09,37.3-114.66,64.1-177.1,6.86-16.07,13.95-30.94,21.13-43.7,57.19-68.15,172.08-105.08,199.89-126.72,4.7-3.64,6.91-6.86,5.94-9.72-2.49-7.6-40.81.9-88.75,7.16-23.42,3.05-51.54,7.19-75.63,5.52-2.96-.21-5.25-2.66-5.38-5.62-.29-6.48-.66-16.68-.66-16.68-.97-11.37-1.47-23.16-1.7-35.09-.15-5.94-.18-11.94-.14-17.96.02-2.62,2.17-4.73,4.79-4.72l294.85,1.51c3.25.02,5.88,2.65,5.88,5.9l.19,128.06c0,1.97-.98,3.81-2.61,4.91l-421.9,284.24Z"/>
  </g>
</svg>